<svg width="57" height="57" viewBox="0 0 57 57" fill="none" xmlns="http://www.w3.org/2000/svg">
<circle cx="28.3746" cy="28.3746" r="28.3746" fill="#FFD900"/>
<rect x="28.8926" y="34.2349" width="11.8682" height="1.73611" transform="rotate(90 28.8926 34.2349)" fill="#42367D"/>
<rect x="38.1993" y="34.2064" width="11.8682" height="1.73611" transform="rotate(90 38.1993 34.2064)" fill="#42367D"/>
<rect x="41.7568" y="34.2064" width="11.8682" height="1.73611" transform="rotate(90 41.7568 34.2064)" fill="#42367D"/>
<rect x="23.0581" y="38.5325" width="5.49295" height="1.65073" transform="rotate(90 23.0581 38.5325)" fill="#42367D"/>
<rect x="23.0581" y="39.984" width="4.15529" height="1.59381" transform="rotate(-180 23.0581 39.984)" fill="#42367D"/>
<rect x="37.0039" y="39.0163" width="3.67145" height="1.47997" transform="rotate(-180 37.0039 39.0163)" fill="#42367D"/>
<rect x="33.3325" y="41.6347" width="3.67145" height="1.22382" transform="rotate(-90 33.3325 41.6347)" fill="#42367D"/>
<rect x="34.3571" y="40.667" width="3.67145" height="1.36612" transform="rotate(-180 34.3571 40.667)" fill="#42367D"/>
<rect x="33.8164" y="46.0746" width="3.1307" height="1.22382" transform="rotate(-180 33.8164 46.0746)" fill="#42367D"/>
<rect x="30.6857" y="46.0746" width="6.46062" height="1.50843" transform="rotate(-90 30.6857 46.0746)" fill="#42367D"/>
<rect x="44.8876" y="34.4626" width="11.5551" height="1.79303" transform="rotate(-180 44.8876 34.4626)" fill="#42367D"/>
<rect x="22.005" y="42.3178" width="5.54987" height="1.70765" fill="#42367D"/>
<rect x="31.9073" y="22.5068" width="4.31073" height="1.0837" fill="#42367D"/>
<rect x="33.0392" y="22.6995" width="4.02174" height="1.13187" transform="rotate(90 33.0392 22.6995)" fill="#42367D"/>
<rect x="36.218" y="22.6754" width="4.02174" height="1.13187" transform="rotate(90 36.218 22.6754)" fill="#42367D"/>
<rect x="34.5564" y="14.4393" width="2.02291" height="1.66168" transform="rotate(90 34.5564 14.4393)" fill="#42367D"/>
<rect x="29.0416" y="16.4622" width="11.3428" height="1.83025" transform="rotate(90 29.0416 16.4622)" fill="#42367D"/>
<rect x="13.9419" y="14.4393" width="3.92541" height="1.39677" fill="#42367D"/>
<rect x="13.9419" y="7.98521" width="2.23965" height="1.42085" fill="#42367D"/>
<rect x="20.5886" y="26.8898" width="4.19032" height="1.10779" fill="#42367D"/>
<rect x="20.8535" y="30.2854" width="3.92541" height="1.03554" fill="#42367D"/>
<rect x="21.7687" y="27.2751" width="4.04582" height="1.18003" transform="rotate(90 21.7687 27.2751)" fill="#42367D"/>
<rect x="24.7791" y="27.251" width="3.92541" height="0.915127" transform="rotate(90 24.7791 27.251)" fill="#42367D"/>
<rect x="24.7791" y="31.1524" width="3.92541" height="1.46902" transform="rotate(90 24.7791 31.1524)" fill="#42367D"/>
<rect x="12.8101" y="32.6695" width="2.40823" height="0.987373" transform="rotate(90 12.8101 32.6695)" fill="#42367D"/>
<rect x="12.2803" y="33.8014" width="11.9207" height="1.27636" fill="#42367D"/>
<rect x="16.856" y="22.4346" width="7.3451" height="1.68576" fill="#42367D"/>
<rect x="27.2113" y="16.4622" width="7.3451" height="1.4931" fill="#42367D"/>
<rect x="27.2113" y="26.5286" width="9.00677" height="1.4931" fill="#42367D"/>
<rect x="24.7791" y="14.4393" width="12.6432" height="1.85434" transform="rotate(90 24.7791 14.4393)" fill="#42367D"/>
<rect x="18.4213" y="14.4393" width="9.48842" height="1.56535" transform="rotate(90 18.4213 14.4393)" fill="#42367D"/>
<rect x="33.3041" y="29.2258" width="2.50456" height="2.09516" fill="#42367D"/>
<rect x="16.1854" y="7.98521" width="19.4628" height="1.35596" transform="rotate(19.3302 16.1854 7.98521)" fill="#42367D"/>
</svg>
